<svg xmlns="http://www.w3.org/2000/svg" width="31.733" height="10.426" viewBox="51.4 831.8 31.733 10.426"><path d="m69.698 842.226-.218-.003c-1.006 0-1.982-.188-2.824-.545l.458-2.179c.877.408 1.8.623 2.67.623.76 0 1.526-.312 1.526-1.01.072-.446-.243-.748-1.297-1.245-.443-.226-1.008-.542-1.45-.982-.506-.505-.763-1.09-.763-1.74 0-1.939 1.83-3.345 4.349-3.345.786 0 1.626.166 2.365.468l-.458 2.177a4.694 4.694 0 0 0-2.517-.467c-.567 0-.997.344-1.068.856 0 .465.582.776 1.257 1.135 1.037.553 2.328 1.242 2.328 2.831 0 2.081-1.71 3.426-4.358 3.426Zm6.952-.08h-.001l-2.67-.001 3.814-9.334c.148-.45.597-.778 1.07-.778h2.211l2.06 10.11-2.366.002-.305-1.478h-3.28l-.533 1.478Zm2.594-7.39-1.375 3.811h2.136l-.761-3.81Zm-14.265 7.389h-2.594l2.136-10.112h2.593l-2.135 10.11v.002Zm-5.645 0h-2.747l-2.06-8.089c-.105-.4-.327-.712-.61-.856a8.808 8.808 0 0 0-2.517-.856v-.311h4.424a1.17 1.17 0 0 1 1.145 1.012l1.069 5.833 2.745-6.845h2.67l-4.119 10.11v.002Z" fill="#172b85" fill-rule="evenodd" data-name="visa-logo"/></svg>